<mxfile host="app.diagrams.net" modified="2023-09-26T00:11:56.170Z" agent="Mozilla/5.0 (Windows NT 10.0; Win64; x64) AppleWebKit/537.36 (KHTML, like Gecko) Chrome/117.0.0.0 Safari/537.36" etag="yeCWoRW7ix8Wj_qAAjgp" version="21.8.2" type="device">
  <diagram name="PÃ¡gina-1" id="tE-FfOUnxGVTIb8NPLxv">
    <mxGraphModel dx="874" dy="1683" grid="1" gridSize="10" guides="1" tooltips="1" connect="1" arrows="1" fold="1" page="1" pageScale="1" pageWidth="827" pageHeight="1169" math="0" shadow="0">
      <root>
        <mxCell id="0" />
        <mxCell id="1" parent="0" />
        <mxCell id="cRG0QfzShwpWN7QY3RTz-1" value="Mesa" style="rounded=1;arcSize=10;whiteSpace=wrap;html=1;align=center;" vertex="1" parent="1">
          <mxGeometry x="20" y="120" width="110" height="40" as="geometry" />
        </mxCell>
        <mxCell id="cRG0QfzShwpWN7QY3RTz-2" value="Producto" style="rounded=1;arcSize=10;whiteSpace=wrap;html=1;align=center;" vertex="1" parent="1">
          <mxGeometry x="685" y="120" width="100" height="40" as="geometry" />
        </mxCell>
        <mxCell id="cRG0QfzShwpWN7QY3RTz-3" value="Pedido" style="rounded=1;arcSize=10;whiteSpace=wrap;html=1;align=center;" vertex="1" parent="1">
          <mxGeometry x="390" y="58" width="100" height="40" as="geometry" />
        </mxCell>
        <mxCell id="cRG0QfzShwpWN7QY3RTz-7" value="Item" style="shape=ext;margin=3;double=1;whiteSpace=wrap;html=1;align=center;" vertex="1" parent="1">
          <mxGeometry x="560" y="330" width="100" height="40" as="geometry" />
        </mxCell>
        <mxCell id="cRG0QfzShwpWN7QY3RTz-8" value="IdProducto" style="ellipse;whiteSpace=wrap;html=1;align=center;fontStyle=4;" vertex="1" parent="1">
          <mxGeometry x="490" y="420" width="100" height="40" as="geometry" />
        </mxCell>
        <mxCell id="cRG0QfzShwpWN7QY3RTz-10" value="" style="endArrow=none;html=1;rounded=0;exitX=0.5;exitY=0;exitDx=0;exitDy=0;entryX=0.5;entryY=1;entryDx=0;entryDy=0;" edge="1" parent="1" source="cRG0QfzShwpWN7QY3RTz-8" target="cRG0QfzShwpWN7QY3RTz-7">
          <mxGeometry relative="1" as="geometry">
            <mxPoint x="320" y="410" as="sourcePoint" />
            <mxPoint x="480" y="410" as="targetPoint" />
          </mxGeometry>
        </mxCell>
        <mxCell id="cRG0QfzShwpWN7QY3RTz-11" value="CantProd" style="ellipse;whiteSpace=wrap;html=1;align=center;" vertex="1" parent="1">
          <mxGeometry x="630" y="420" width="100" height="40" as="geometry" />
        </mxCell>
        <mxCell id="cRG0QfzShwpWN7QY3RTz-12" value="" style="endArrow=none;html=1;rounded=0;exitX=0.5;exitY=0;exitDx=0;exitDy=0;entryX=0.5;entryY=1;entryDx=0;entryDy=0;" edge="1" parent="1" source="cRG0QfzShwpWN7QY3RTz-11" target="cRG0QfzShwpWN7QY3RTz-7">
          <mxGeometry relative="1" as="geometry">
            <mxPoint x="310" y="420" as="sourcePoint" />
            <mxPoint x="360" y="330" as="targetPoint" />
          </mxGeometry>
        </mxCell>
        <mxCell id="cRG0QfzShwpWN7QY3RTz-17" value="" style="edgeStyle=entityRelationEdgeStyle;fontSize=12;html=1;endArrow=ERoneToMany;rounded=0;exitX=0.5;exitY=1;exitDx=0;exitDy=0;entryX=0;entryY=0.5;entryDx=0;entryDy=0;" edge="1" parent="1" source="cRG0QfzShwpWN7QY3RTz-20" target="cRG0QfzShwpWN7QY3RTz-7">
          <mxGeometry width="100" height="100" relative="1" as="geometry">
            <mxPoint x="360" y="320" as="sourcePoint" />
            <mxPoint x="460" y="220" as="targetPoint" />
            <Array as="points">
              <mxPoint x="320" y="270" />
              <mxPoint x="350" y="250" />
            </Array>
          </mxGeometry>
        </mxCell>
        <mxCell id="cRG0QfzShwpWN7QY3RTz-18" value="" style="edgeStyle=entityRelationEdgeStyle;fontSize=12;html=1;endArrow=ERzeroToMany;endFill=1;rounded=0;entryX=0;entryY=0.5;entryDx=0;entryDy=0;exitX=1;exitY=0.5;exitDx=0;exitDy=0;" edge="1" parent="1" source="cRG0QfzShwpWN7QY3RTz-31" target="cRG0QfzShwpWN7QY3RTz-3">
          <mxGeometry width="100" height="100" relative="1" as="geometry">
            <mxPoint x="20" y="190" as="sourcePoint" />
            <mxPoint x="120" y="90" as="targetPoint" />
          </mxGeometry>
        </mxCell>
        <mxCell id="cRG0QfzShwpWN7QY3RTz-20" value="Puede contener" style="shape=rhombus;perimeter=rhombusPerimeter;whiteSpace=wrap;html=1;align=center;" vertex="1" parent="1">
          <mxGeometry x="380" y="180" width="120" height="60" as="geometry" />
        </mxCell>
        <mxCell id="cRG0QfzShwpWN7QY3RTz-23" value="" style="endArrow=none;html=1;rounded=0;entryX=0.5;entryY=1;entryDx=0;entryDy=0;exitX=0.5;exitY=0;exitDx=0;exitDy=0;" edge="1" parent="1" source="cRG0QfzShwpWN7QY3RTz-20" target="cRG0QfzShwpWN7QY3RTz-3">
          <mxGeometry relative="1" as="geometry">
            <mxPoint x="280" y="220" as="sourcePoint" />
            <mxPoint x="440" y="220" as="targetPoint" />
          </mxGeometry>
        </mxCell>
        <mxCell id="cRG0QfzShwpWN7QY3RTz-19" value="Es un" style="shape=rhombus;perimeter=rhombusPerimeter;whiteSpace=wrap;html=1;align=center;" vertex="1" parent="1">
          <mxGeometry x="610" y="213" width="120" height="60" as="geometry" />
        </mxCell>
        <mxCell id="cRG0QfzShwpWN7QY3RTz-26" value="" style="edgeStyle=entityRelationEdgeStyle;fontSize=12;html=1;endArrow=ERmandOne;rounded=0;entryX=0;entryY=0.5;entryDx=0;entryDy=0;exitX=0.5;exitY=0;exitDx=0;exitDy=0;" edge="1" parent="1" source="cRG0QfzShwpWN7QY3RTz-19" target="cRG0QfzShwpWN7QY3RTz-2">
          <mxGeometry width="100" height="100" relative="1" as="geometry">
            <mxPoint x="620" y="150" as="sourcePoint" />
            <mxPoint x="740" y="140" as="targetPoint" />
          </mxGeometry>
        </mxCell>
        <mxCell id="cRG0QfzShwpWN7QY3RTz-27" value="" style="edgeStyle=entityRelationEdgeStyle;fontSize=12;html=1;endArrow=ERmandOne;rounded=0;exitX=0.5;exitY=1;exitDx=0;exitDy=0;entryX=1;entryY=0.5;entryDx=0;entryDy=0;" edge="1" parent="1" source="cRG0QfzShwpWN7QY3RTz-19" target="cRG0QfzShwpWN7QY3RTz-7">
          <mxGeometry width="100" height="100" relative="1" as="geometry">
            <mxPoint x="720" y="300" as="sourcePoint" />
            <mxPoint x="820" y="200" as="targetPoint" />
          </mxGeometry>
        </mxCell>
        <mxCell id="cRG0QfzShwpWN7QY3RTz-31" value="Puede contener" style="shape=rhombus;perimeter=rhombusPerimeter;whiteSpace=wrap;html=1;align=center;" vertex="1" parent="1">
          <mxGeometry x="210" y="110" width="120" height="60" as="geometry" />
        </mxCell>
        <mxCell id="cRG0QfzShwpWN7QY3RTz-32" value="" style="endArrow=none;html=1;rounded=0;exitX=1;exitY=0.5;exitDx=0;exitDy=0;entryX=0;entryY=0.5;entryDx=0;entryDy=0;" edge="1" parent="1" source="cRG0QfzShwpWN7QY3RTz-1" target="cRG0QfzShwpWN7QY3RTz-31">
          <mxGeometry relative="1" as="geometry">
            <mxPoint x="100" y="229" as="sourcePoint" />
            <mxPoint x="260" y="229" as="targetPoint" />
          </mxGeometry>
        </mxCell>
        <mxCell id="cRG0QfzShwpWN7QY3RTz-33" value="1...N" style="text;html=1;align=center;verticalAlign=middle;resizable=0;points=[];autosize=1;strokeColor=none;fillColor=none;" vertex="1" parent="1">
          <mxGeometry x="470" y="170" width="50" height="30" as="geometry" />
        </mxCell>
        <mxCell id="cRG0QfzShwpWN7QY3RTz-34" value="0...N" style="text;html=1;align=center;verticalAlign=middle;resizable=0;points=[];autosize=1;strokeColor=none;fillColor=none;" vertex="1" parent="1">
          <mxGeometry x="280" y="98" width="50" height="30" as="geometry" />
        </mxCell>
        <mxCell id="cRG0QfzShwpWN7QY3RTz-35" value="1...1" style="text;html=1;align=center;verticalAlign=middle;resizable=0;points=[];autosize=1;strokeColor=none;fillColor=none;" vertex="1" parent="1">
          <mxGeometry x="710" y="210" width="50" height="30" as="geometry" />
        </mxCell>
        <mxCell id="cRG0QfzShwpWN7QY3RTz-36" value="IdMesa" style="ellipse;whiteSpace=wrap;html=1;align=center;fontStyle=4;" vertex="1" parent="1">
          <mxGeometry x="25" y="223" width="100" height="40" as="geometry" />
        </mxCell>
        <mxCell id="cRG0QfzShwpWN7QY3RTz-37" value="" style="endArrow=none;html=1;rounded=0;exitX=0.5;exitY=0;exitDx=0;exitDy=0;entryX=0.5;entryY=1;entryDx=0;entryDy=0;" edge="1" parent="1" source="cRG0QfzShwpWN7QY3RTz-36" target="cRG0QfzShwpWN7QY3RTz-1">
          <mxGeometry relative="1" as="geometry">
            <mxPoint x="160" y="263" as="sourcePoint" />
            <mxPoint x="320" y="263" as="targetPoint" />
          </mxGeometry>
        </mxCell>
        <mxCell id="cRG0QfzShwpWN7QY3RTz-38" value="IdPedido" style="ellipse;whiteSpace=wrap;html=1;align=center;fontStyle=4;" vertex="1" parent="1">
          <mxGeometry x="330" y="-60" width="100" height="40" as="geometry" />
        </mxCell>
        <mxCell id="cRG0QfzShwpWN7QY3RTz-39" value="FechaPedido" style="ellipse;whiteSpace=wrap;html=1;align=center;" vertex="1" parent="1">
          <mxGeometry x="440" y="-60" width="100" height="40" as="geometry" />
        </mxCell>
        <mxCell id="cRG0QfzShwpWN7QY3RTz-40" value="EstadoPedido" style="ellipse;whiteSpace=wrap;html=1;align=center;" vertex="1" parent="1">
          <mxGeometry x="550" y="-60" width="100" height="40" as="geometry" />
        </mxCell>
        <mxCell id="cRG0QfzShwpWN7QY3RTz-41" value="PrecioTotalPedido" style="ellipse;whiteSpace=wrap;html=1;align=center;" vertex="1" parent="1">
          <mxGeometry x="190" y="-60" width="120" height="40" as="geometry" />
        </mxCell>
        <mxCell id="cRG0QfzShwpWN7QY3RTz-42" value="" style="endArrow=none;html=1;rounded=0;entryX=0.5;entryY=0;entryDx=0;entryDy=0;exitX=0.5;exitY=1;exitDx=0;exitDy=0;" edge="1" parent="1" source="cRG0QfzShwpWN7QY3RTz-41" target="cRG0QfzShwpWN7QY3RTz-3">
          <mxGeometry relative="1" as="geometry">
            <mxPoint x="230" y="30" as="sourcePoint" />
            <mxPoint x="390" y="30" as="targetPoint" />
          </mxGeometry>
        </mxCell>
        <mxCell id="cRG0QfzShwpWN7QY3RTz-43" value="" style="endArrow=none;html=1;rounded=0;exitX=0.5;exitY=1;exitDx=0;exitDy=0;entryX=0.5;entryY=0;entryDx=0;entryDy=0;" edge="1" parent="1" source="cRG0QfzShwpWN7QY3RTz-38" target="cRG0QfzShwpWN7QY3RTz-3">
          <mxGeometry relative="1" as="geometry">
            <mxPoint x="330" y="70" as="sourcePoint" />
            <mxPoint x="490" y="70" as="targetPoint" />
          </mxGeometry>
        </mxCell>
        <mxCell id="cRG0QfzShwpWN7QY3RTz-44" value="" style="endArrow=none;html=1;rounded=0;exitX=0.5;exitY=1;exitDx=0;exitDy=0;entryX=0.5;entryY=0;entryDx=0;entryDy=0;" edge="1" parent="1" source="cRG0QfzShwpWN7QY3RTz-39" target="cRG0QfzShwpWN7QY3RTz-3">
          <mxGeometry relative="1" as="geometry">
            <mxPoint x="330" y="70" as="sourcePoint" />
            <mxPoint x="490" y="70" as="targetPoint" />
          </mxGeometry>
        </mxCell>
        <mxCell id="cRG0QfzShwpWN7QY3RTz-45" value="" style="endArrow=none;html=1;rounded=0;exitX=0.5;exitY=1;exitDx=0;exitDy=0;entryX=0.5;entryY=0;entryDx=0;entryDy=0;" edge="1" parent="1" source="cRG0QfzShwpWN7QY3RTz-40" target="cRG0QfzShwpWN7QY3RTz-3">
          <mxGeometry relative="1" as="geometry">
            <mxPoint x="330" y="70" as="sourcePoint" />
            <mxPoint x="490" y="70" as="targetPoint" />
          </mxGeometry>
        </mxCell>
        <mxCell id="cRG0QfzShwpWN7QY3RTz-46" value="IdProducto" style="ellipse;whiteSpace=wrap;html=1;align=center;fontStyle=4;" vertex="1" parent="1">
          <mxGeometry x="700" y="18" width="100" height="40" as="geometry" />
        </mxCell>
        <mxCell id="cRG0QfzShwpWN7QY3RTz-47" value="Precio" style="ellipse;whiteSpace=wrap;html=1;align=center;" vertex="1" parent="1">
          <mxGeometry x="810" y="50" width="100" height="40" as="geometry" />
        </mxCell>
        <mxCell id="cRG0QfzShwpWN7QY3RTz-48" value="Descripcion" style="ellipse;whiteSpace=wrap;html=1;align=center;" vertex="1" parent="1">
          <mxGeometry x="590" y="58" width="100" height="40" as="geometry" />
        </mxCell>
        <mxCell id="cRG0QfzShwpWN7QY3RTz-49" value="Costo" style="ellipse;whiteSpace=wrap;html=1;align=center;" vertex="1" parent="1">
          <mxGeometry x="820" y="110" width="100" height="40" as="geometry" />
        </mxCell>
        <mxCell id="cRG0QfzShwpWN7QY3RTz-50" value="Nombre" style="ellipse;whiteSpace=wrap;html=1;align=center;" vertex="1" parent="1">
          <mxGeometry x="800" y="170" width="100" height="40" as="geometry" />
        </mxCell>
        <mxCell id="cRG0QfzShwpWN7QY3RTz-51" value="" style="endArrow=none;html=1;rounded=0;exitX=1;exitY=1;exitDx=0;exitDy=0;entryX=0.5;entryY=0;entryDx=0;entryDy=0;" edge="1" parent="1" source="cRG0QfzShwpWN7QY3RTz-48" target="cRG0QfzShwpWN7QY3RTz-2">
          <mxGeometry relative="1" as="geometry">
            <mxPoint x="590" y="170" as="sourcePoint" />
            <mxPoint x="750" y="170" as="targetPoint" />
          </mxGeometry>
        </mxCell>
        <mxCell id="cRG0QfzShwpWN7QY3RTz-52" value="" style="endArrow=none;html=1;rounded=0;exitX=0;exitY=0.5;exitDx=0;exitDy=0;entryX=0.5;entryY=1;entryDx=0;entryDy=0;" edge="1" parent="1" source="cRG0QfzShwpWN7QY3RTz-50" target="cRG0QfzShwpWN7QY3RTz-2">
          <mxGeometry relative="1" as="geometry">
            <mxPoint x="590" y="170" as="sourcePoint" />
            <mxPoint x="750" y="170" as="targetPoint" />
          </mxGeometry>
        </mxCell>
        <mxCell id="cRG0QfzShwpWN7QY3RTz-53" value="" style="endArrow=none;html=1;rounded=0;exitX=0.5;exitY=0;exitDx=0;exitDy=0;entryX=0.5;entryY=1;entryDx=0;entryDy=0;" edge="1" parent="1" source="cRG0QfzShwpWN7QY3RTz-2" target="cRG0QfzShwpWN7QY3RTz-46">
          <mxGeometry relative="1" as="geometry">
            <mxPoint x="810" y="18" as="sourcePoint" />
            <mxPoint x="970" y="18" as="targetPoint" />
          </mxGeometry>
        </mxCell>
        <mxCell id="cRG0QfzShwpWN7QY3RTz-54" value="" style="endArrow=none;html=1;rounded=0;exitX=0;exitY=0.5;exitDx=0;exitDy=0;entryX=1;entryY=0.5;entryDx=0;entryDy=0;" edge="1" parent="1" source="cRG0QfzShwpWN7QY3RTz-49" target="cRG0QfzShwpWN7QY3RTz-2">
          <mxGeometry relative="1" as="geometry">
            <mxPoint x="590" y="170" as="sourcePoint" />
            <mxPoint x="750" y="170" as="targetPoint" />
          </mxGeometry>
        </mxCell>
        <mxCell id="cRG0QfzShwpWN7QY3RTz-55" value="" style="endArrow=none;html=1;rounded=0;exitX=0;exitY=0.5;exitDx=0;exitDy=0;entryX=0.5;entryY=0;entryDx=0;entryDy=0;" edge="1" parent="1" source="cRG0QfzShwpWN7QY3RTz-47" target="cRG0QfzShwpWN7QY3RTz-2">
          <mxGeometry relative="1" as="geometry">
            <mxPoint x="590" y="170" as="sourcePoint" />
            <mxPoint x="750" y="170" as="targetPoint" />
          </mxGeometry>
        </mxCell>
      </root>
    </mxGraphModel>
  </diagram>
</mxfile>
